 
http://img534.imageshack.us/img534/6677/34littlekrishna.jpg 
http://img228.imageshack.us/img228/8703/66hdrr.jpg

[b]Complete name                    : The Little Krishna - the darling of vrindavan  DVD Upscaled Hindi Dubbed_DjVikas
Format                           : Matroska
File size                        : 1.11 GiB
Duration                         : 1h 7mn
Overall bit rate                 : 2 360 Kbps
Movie name                       : The Little Krishna - the darling of vrindavan  DVD Upscaled Hindi Dubbed_DjVikas
Encoded date                     : UTC 2011-06-23 07:57:28

Video
ID                               : 1
Format                           : AVC
Format/Info                      : Advanced Video Codec
Format profile                   : Baseline@L3.0
Format settings, CABAC           : No
Format settings, ReFrames        : 1 frame
Format settings, GOP             : M=1, N=25
Muxing mode                      : Header stripping
Codec ID                         : V_MPEG4/ISO/AVC
Duration                         : 1h 7mn
Bit rate                         : 2 057 Kbps
Width                            : 1 280 pixels
Height                           : 720 pixels
Display aspect ratio             : 16:9
Frame rate                       : 23.976 fps
Original frame rate              : 23.000 fps
Color space                      : YUV
Chroma subsampling               : 4:2:0
Bit depth                        : 8 bits
Scan type                        : Progressive
Bits/(Pixel*Frame)               : 0.093
Stream size                      : 990 MiB (87%)
Title                            : The Little Krishna DVD Upscaled Hindi Dubbed DjVikas

Audio
ID                               : 2
Format                           : AC-3
Format/Info                      : Audio Coding 3
Mode extension                   : CM (complete main)
Muxing mode                      : Header stripping
Codec ID                         : A_AC3
Duration                         : 1h 7mn
Bit rate mode                    : Constant
Bit rate                         : 256 Kbps
Channel(s)                       : 6 channels
Channel positions                : Front: L C R, Side: L R, LFE
Sampling rate                    : 44.1 KHz
Bit depth                        : 16 bits
Compression mode                 : Lossy
Delay relative to video          : 31ms
Stream size                      : 123 MiB (11%)
Title                            : hindi_DjVikas
Language                         : Hindi[/b]


.........................................................................................................................
 
http://img35.imageshack.us/img35/9688/14krishnamkvsnapshot000.jpg
 
http://img99.imageshack.us/img99/5246/27krishnamkvsnapshot000.jpg
 
http://img827.imageshack.us/img827/6946/19krishnamkvsnapshot001.jpg
 
http://img31.imageshack.us/img31/8301/68krishnamkvsnapshot001.jpg
 
http://img84.imageshack.us/img84/1636/29krishnamkvsnapshot001.jpg
 
http://img600.imageshack.us/img600/8301/68krishnamkvsnapshot001.jpg
 
http://img28.imageshack.us/img28/6896/82krishnamkvsnapshot001.jpg
 
http://img151.imageshack.us/img151/4088/66krishnamkvsnapshot002.jpg
 
http://img3.imageshack.us/img3/5049/22krishnamkvsnapshot004.jpg 
http://img52.imageshack.us/img52/9574/68krishnamkvsnapshot004.jpg
